PathFileType	4	(X/Y/Z)	pose_F01_0-96.trc
DataRate	CameraRate	NumFrames	NumMarkers	Units	OrigDataRate	OrigDataStartFrame	OrigNumFrames
30	30	7	21	m	30	72	96
Frame#	Time	CHip			RHip			RKnee			RAnkle			RBigToe			RSmallToe			RHeel			LHip			LKnee			LAnkle			LBigToe			LSmallToe			LHeel			Neck			Nose			RShoulder			RElbow			RWrist			LShoulder			LElbow			LWrist			
		X1	Y1	Z1	X2	Y2	Z2	X3	Y3	Z3	X4	Y4	Z4	X5	Y5	Z5	X6	Y6	Z6	X7	Y7	Z7	X8	Y8	Z8	X9	Y9	Z9	X10	Y10	Z10	X11	Y11	Z11	X12	Y12	Z12	X13	Y13	Z13	X14	Y14	Z14	X15	Y15	Z15	X16	Y16	Z16	X17	Y17	Z17	X18	Y18	Z18	X19	Y19	Z19	X20	Y20	Z20	X21	Y21	Z21	
72	2.4	-0.2500373059118722	1.8596354753799524	-0.5646773867786078	-0.2715415847935476	1.8532072786791487	-0.5068675808165786	-0.33176098922491193	1.6967664503901623	-0.5010815915615862	-0.3198901268261671	1.5529257665322838	-0.4558883545983432							-0.30571077254116674	1.5390653575261135	-0.4610310206506992	-0.23133614993450197	1.8645611566595643	-0.6181928282688397	-0.21289148518226927	1.700685580528224	-0.6211678555684494	-0.17440310816512195	1.5730611539507595	-0.6079234582766424	-0.2023908954054723	1.5316162974590404	-0.6409378481099941	-0.18638723755076536	1.537068269347634	-0.6574753211135563	-0.16567738467877452	1.5678314160473075	-0.5858859579294525	-0.3198648459575111	2.0278663917189284	-0.6051240750061222	-0.37792431151842215	2.0979026180012847	-0.6193330224158013	-0.3433426716977241	2.015100520790474	-0.5312143670973162	-0.41631788274689874	1.9486452676234092	-0.5718129588622554	-1.007244873580475	1.7876595453448076	-0.1676794352588948	-0.2896289176232791	2.040858938552587	-0.6719174443161172	-0.3360946044397918	1.9666474262365352	-0.6932119910437732	-0.4437966634210804	1.9508425025719727	-0.7146119172366545
73	2.433333333333333	-0.25203814496263427	1.858443277640747	-0.5708719823725857	-0.2706517797839674	1.8539169483774485	-0.5123292153411639	-0.33392014181907675	1.6965266765482792	-0.5077128917581422	-0.3198901268261671	1.5529257665322838	-0.4558883545983432							-0.30571077254116674	1.5390653575261135	-0.4610310206506992	-0.23241668236775034	1.8642094360595558	-0.629717403960299	-0.21522003479724702	1.7057389351594736	-0.6192066878081928	-0.17221064998996036	1.5758428857270692	-0.61035462253234	-0.2020498621028297	1.5336440113613135	-0.6410003365999405	-0.18625285148836535	1.5400301074103047	-0.6575501418447417	-0.16241245376652863	1.569529438714825	-0.5855715143608905	-0.31430024759849357	2.034829444200122	-0.6069804408292425	-0.36954295215207283	2.099885545562148	-0.6278725044152909	-0.3380555531953867	2.0214795573785604	-0.533547421699594	-0.4127493306311382	1.9526653627541928	-0.5710733205834428	-1.0622914885148136	1.8035452928859161	-0.07923353001153766	-0.28410584609274314	2.0447276333537903	-0.6735665774415163	-0.3251960323823494	1.9728169328578578	-0.6964450775474568	-0.4340777370655819	1.9489488627089913	-0.7118437936036678
74	2.466666666666667	-0.2521464237121609	1.8621592541756515	-0.5802286745052588	-0.272614929817254	1.8579143449192779	-0.5281772889347026	-0.332103652823699	1.6983185014421354	-0.5098507532506767	-0.3198901268261671	1.5529257665322838	-0.4558883545983432							-0.30571077254116674	1.5390653575261135	-0.4610310206506992	-0.22860056110221227	1.866555224973503	-0.6346190114360323	-0.21462136565093354	1.7072469144046534	-0.6242098325282027	-0.17446184136378298	1.5736764392059455	-0.607679304601034	-0.2016967458822826	1.53152196799699	-0.6412324210498337	-0.1835005497691121	1.5345949811767068	-0.6590577408551869	-0.1637235509246507	1.565892090386832	-0.5874258624183328	-0.3060304797874676	2.0378883826451846	-0.6081104426101647	-0.36509811089472316	2.103132593040952	-0.6322924784322965	-0.32971421138722024	2.0262860085726038	-0.5346841363583563	-1.305047878216731	1.8663754500598357	0.33113292742878037	-1.0774936436534905	1.815443456386014	-0.06072804232534387	-0.27732031984474476	2.0507168658513337	-0.6805337561406402	-0.315244907524656	1.9755289684191568	-0.7025183047825315	-0.41916165744819256	1.9563982707800684	-0.7216154592796996
75	2.5	-0.2522535986356987	1.8650819348174155	-0.5892398040583617	-0.2718308818802915	1.8608476518247188	-0.5340742701994199	-0.33148815973985557	1.7014614724618058	-0.5150594380797124	-0.3198901268261671	1.5529257665322838	-0.4558883545983432							-0.30571077254116674	1.5390653575261135	-0.4610310206506992	-0.23148632595385457	1.8694492989094584	-0.6446592146755119	-0.21157610176742336	1.7073816059719904	-0.6232518880830258	-0.1744206315010626	1.5729753903006252	-0.607911338870343	-0.20531708244979344	1.5309342051449542	-0.6418892188518613	-0.18640778693548923	1.5371911072075832	-0.657233072761431	-0.1629123437136824	1.5662090675577445	-0.5843089208502218	-0.29663778257378964	2.0397279944947395	-0.6052875578773601	-0.357825553827901	2.1033457722769353	-0.6276882926062625	-0.3243544232109162	2.029850250806514	-0.5361146198777771	-0.3959358213043785	1.9686221331653582	-0.5673147697211767	-1.0959405319252318	1.8281446717009893	-0.024371676941400106	-0.26981451417418206	2.0525015629448644	-0.6839260013094891	-0.3106649192458092	1.9792426544450799	-0.7071313532600813	-0.41678783315232276	1.9601520662154184	-0.7158684077036749
76	2.533333333333333	-0.2529126638505704	1.8690362404725478	-0.5930742183530303	-0.27261218140396937	1.866203874594327	-0.5381493535790457	-0.33120452058029765	1.7024358873365024	-0.5155482235757547	-0.3198901268261671	1.5529257665322838	-0.4558883545983432							-0.30571077254116674	1.5390653575261135	-0.4610310206506992	-0.22993453658163815	1.8747510665222133	-0.6507158289243328	-0.21265843656404	1.7086774560446052	-0.6264908283471188	-0.17251016816876566	1.574808225768051	-0.6095521937833076	-0.2041305604867244	1.5303700456301146	-0.638170446305276	-0.3109677319119927	1.485836168196263	-1.1035603889866183	-0.1609864538091129	1.565428970430343	-0.5857347809945896	-0.29358128809201883	2.0425578330543903	-0.6053131039925524	-0.35254929871040236	2.1054716234133415	-0.6298881509679706	-0.3211237813050831	2.0326140400840527	-0.535588140525375	-0.39437782128609217	1.9669569755113174	-0.5620798740397622	-0.48498881453429443	1.947906866549228	-0.6039013591558601	-0.26682100373858886	2.056321474164874	-0.6843674776892664	-0.30820363762777897	1.9831462316873538	-0.709694798236606	-0.4076647086935292	1.9713505766949702	-0.7171084473284226
77	2.566666666666667	-0.2508051020446599	1.869064301739771	-0.5952864472828716	-0.27045520619029334	1.8650174324848279	-0.5401270750255603	-0.32935450605739036	1.7007259642865968	-0.5173068394675039	-0.3198901268261671	1.5529257665322838	-0.4558883545983432							-0.30571077254116674	1.5390653575261135	-0.4610310206506992	-0.2278488554594336	1.87211957283769	-0.652603989836675	-0.21245330300086276	1.7073629334210552	-0.6264285600437062	-0.17448365629007764	1.5739779975079453	-0.6077224917820758	-0.20226477222934258	1.5334192315288364	-0.6415128202698497	-0.1865265086904134	1.5379198729593133	-0.6572150505369163	-0.1628463390410342	1.5663863987542457	-0.5843881687440245	-0.2894079478309315	2.04625477466067	-0.610182621595835	-0.3441837330508289	2.103774670442931	-0.6289487105748979	-0.3159642057806364	2.0366684822530368	-0.5375417765639646	-0.37288857858610003	1.9733877401227953	-0.5747690372209366	-0.4350818712992684	1.95929883773253	-0.6497052760290619	-0.26303606981033145	2.0566380115586114	-0.6816032025067912	-0.3074008000060788	1.9865412066841857	-0.7070572111236701	-0.4042031131548169	1.9762992341576646	-0.7162765824833115
78	2.6	-0.25074847733756156	1.871794336672226	-0.5956389962010448	-0.26851510693513037	1.869000923964269	-0.5428690142418223	-0.32812287883259256	1.703304011580872	-0.5144107895927078	-0.3198901268261671	1.5529257665322838	-0.4558883545983432							-0.30571077254116674	1.5390653575261135	-0.4610310206506992	-0.23007613088829637	1.8749191271247048	-0.6508292229531534	-0.21452540761288252	1.7103602534946527	-0.6246439851498299	-0.17445554104533167	1.5738830448713539	-0.6077788276496967	-0.20406039457475833	1.529772499742997	-0.638471431146674	-0.18594989185085947	1.5357801882763735	-0.656881298999422	-0.16365435733225914	1.5686885370529642	-0.5879487993423266	-0.2884247930676635	2.047371848189487	-0.6078522140567937	-0.34117173603374235	2.103653390785886	-0.6281413829226159	-0.31298302307472514	2.037822101228384	-0.536925323626065	-0.3745309650147152	1.962770903755433	-0.5527446776982197	-0.44792278250360695	1.9679874436979947	-0.6469888307869892	-0.25869980737704484	2.0576667678310034	-0.6857268793861123	-0.30421191873729647	1.9908329874242006	-0.7069202117258989	-0.40270663486425234	1.982197480382357	-0.7215002400873479
